<?xml version="1.0" encoding="utf-8"?>
<!-- Generator: Adobe Illustrator 24.0.1, SVG Export Plug-In . SVG Version: 6.00 Build 0)  -->
<svg version="1.1" id="Layer_1" xmlns="http://www.w3.org/2000/svg" xmlns:xlink="http://www.w3.org/1999/xlink" x="0px" y="0px"
	 viewBox="0 0 595.3 841.9" style="enable-background:new 0 0 595.3 841.9;" xml:space="preserve">
<g>
	<path d="M15.3,22.7c0,1.2,0.2,2.2,0.5,3.1c0.4,0.9,0.8,1.7,1.4,2.3c0.6,0.6,1.3,1.1,2.2,1.5c0.8,0.3,1.7,0.5,2.7,0.5
		c0.6,0,1.1-0.1,1.7-0.3c0.5-0.2,1-0.5,1.5-0.9c0.5-0.4,0.9-0.8,1.2-1.2c0.4-0.5,0.7-0.9,0.9-1.4l1.2,0.8c-0.3,0.6-0.7,1.1-1.2,1.6
		c-0.5,0.5-1,1-1.6,1.4c-0.6,0.4-1.3,0.7-2.1,0.9c-0.8,0.2-1.6,0.4-2.6,0.4c-1.4,0-2.6-0.2-3.7-0.7s-2.1-1.1-2.9-1.9
		c-0.8-0.8-1.4-1.7-1.9-2.7s-0.7-2.2-0.7-3.3c0-0.8,0.1-1.5,0.3-2.3s0.5-1.4,0.9-2.1c0.4-0.6,0.8-1.2,1.4-1.8c0.5-0.5,1.2-1,1.9-1.4
		c0.7-0.4,1.4-0.7,2.3-0.9s1.7-0.3,2.6-0.3c0.9,0,1.7,0.1,2.4,0.4c0.7,0.2,1.4,0.6,2,0.9c0.6,0.4,1.2,0.8,1.6,1.4s0.9,1,1.2,1.6
		l-1.2,0.8c-0.7-1.3-1.5-2.3-2.3-2.9c-0.9-0.6-1.8-0.9-3-0.9c-1,0-1.9,0.2-2.7,0.5c-0.8,0.4-1.6,0.9-2.2,1.5
		c-0.6,0.7-1.1,1.4-1.5,2.4C15.5,20.5,15.3,21.6,15.3,22.7z"/>
	<path d="M35.1,20.5c0.8-0.9,1.6-1.5,2.4-1.9c0.8-0.4,1.7-0.6,2.6-0.6c0.5,0,0.9,0.1,1.3,0.3c0.4,0.2,0.7,0.5,1,0.8s0.5,0.8,0.7,1.2
		s0.3,1,0.3,1.5V31h-2.5v-8.7c0-0.9-0.2-1.5-0.6-1.9c-0.4-0.4-0.9-0.7-1.5-0.7c-0.3,0-0.6,0-0.9,0.1c-0.3,0.1-0.6,0.2-0.9,0.4
		s-0.6,0.4-0.9,0.6s-0.6,0.5-0.9,0.8V31h-2.6V12.4l1.8-0.7h0.7V20.5z"/>
	<path d="M53.2,31.2c-0.9,0-1.7-0.2-2.4-0.5c-0.8-0.3-1.4-0.8-2-1.3c-0.6-0.6-1-1.2-1.3-2c-0.3-0.8-0.5-1.6-0.5-2.4
		c0-1,0.2-2,0.5-2.8c0.3-0.9,0.7-1.6,1.3-2.3c0.6-0.6,1.2-1.1,2-1.5s1.6-0.5,2.6-0.5c0.8,0,1.6,0.1,2.3,0.4c0.7,0.3,1.3,0.7,1.8,1.2
		c0.5,0.5,0.9,1.1,1.2,1.7c0.3,0.7,0.4,1.3,0.4,2h-9.5c0,0.9,0.1,1.7,0.3,2.4c0.2,0.7,0.5,1.4,0.9,1.9c0.4,0.5,0.9,1,1.4,1.3
		c0.6,0.3,1.2,0.5,1.8,0.5c0.6,0,1.1-0.1,1.6-0.3c0.5-0.2,1-0.4,1.4-0.7c0.4-0.3,0.8-0.6,1.1-1c0.3-0.4,0.5-0.8,0.6-1.2l0.7,0.3
		c-0.2,0.7-0.5,1.3-0.9,1.9s-0.9,1.1-1.4,1.5c-0.5,0.4-1.1,0.8-1.8,1S53.8,31.2,53.2,31.2z M55.7,22.3c0-0.5-0.1-0.9-0.3-1.4
		s-0.4-0.8-0.7-1.1c-0.3-0.3-0.7-0.5-1.1-0.7c-0.4-0.2-0.8-0.3-1.3-0.3c-0.4,0-0.8,0.1-1.1,0.3c-0.4,0.2-0.7,0.4-0.9,0.7
		s-0.5,0.7-0.7,1.1c-0.2,0.4-0.3,0.9-0.3,1.4L55.7,22.3z"/>
	<path d="M64.7,17.9h0.7v2.7c0.3-0.4,0.7-0.7,1.1-1s0.8-0.6,1.3-0.9c0.4-0.2,0.9-0.4,1.3-0.6c0.4-0.1,0.8-0.2,1.2-0.2
		c0.4,0,0.8,0.1,1.1,0.2s0.7,0.3,1.1,0.6s0.6,0.5,0.9,0.9s0.4,0.7,0.5,1.1c0.2-0.4,0.5-0.7,0.9-1.1c0.4-0.3,0.8-0.6,1.2-0.9
		c0.5-0.2,0.9-0.4,1.4-0.6c0.5-0.1,1-0.2,1.5-0.2c0.5,0,0.9,0.1,1.4,0.3s0.8,0.5,1.1,0.9c0.3,0.4,0.6,0.8,0.8,1.3s0.3,1,0.3,1.6v9
		h-2.5v-8.7c0-0.4-0.1-0.7-0.2-1c-0.1-0.3-0.3-0.6-0.5-0.8s-0.5-0.4-0.7-0.6c-0.3-0.1-0.6-0.2-0.9-0.2c-0.4,0-0.7,0-1.1,0.1
		c-0.4,0.1-0.7,0.2-1,0.4c-0.3,0.2-0.6,0.4-0.9,0.6c-0.3,0.2-0.5,0.5-0.6,0.7V31h-2.5v-8.7c0-0.4-0.1-0.7-0.2-1s-0.3-0.6-0.5-0.8
		s-0.5-0.4-0.7-0.6c-0.3-0.1-0.6-0.2-0.9-0.2c-0.3,0-0.7,0.1-1,0.2c-0.3,0.1-0.7,0.2-1,0.4s-0.6,0.4-0.9,0.6
		c-0.3,0.2-0.5,0.5-0.7,0.7V31h-2.6V18.6L64.7,17.9z"/>
	<path d="M94.8,31c-0.3-0.2-0.6-0.4-0.8-0.7c-0.2-0.3-0.3-0.7-0.3-1c-0.3,0.2-0.6,0.5-0.9,0.7c-0.3,0.2-0.6,0.5-0.9,0.7
		c-0.3,0.2-0.7,0.4-1.1,0.5s-0.9,0.2-1.4,0.2c-0.5,0-1-0.1-1.4-0.2c-0.4-0.2-0.7-0.4-1-0.7c-0.3-0.3-0.5-0.6-0.7-1S86,28.5,86,28.1
		c0-0.6,0.1-1,0.3-1.5c0.2-0.4,0.5-0.8,0.9-1.2c0.4-0.3,0.8-0.7,1.3-0.9c0.5-0.3,1-0.5,1.6-0.7c0.6-0.2,1.2-0.4,1.8-0.6
		c0.6-0.2,1.2-0.3,1.8-0.5v-0.8c0-0.6,0-1.1-0.1-1.5c-0.1-0.4-0.2-0.7-0.4-1c-0.2-0.2-0.4-0.4-0.7-0.5c-0.3-0.1-0.6-0.2-1-0.2
		c-0.4,0-0.7,0.1-1,0.2c-0.3,0.1-0.6,0.3-0.8,0.6c-0.2,0.2-0.4,0.5-0.6,0.8c-0.1,0.3-0.2,0.7-0.3,1h-2.3c0.1-0.6,0.3-1,0.6-1.5
		c0.3-0.4,0.7-0.8,1.2-1.1c0.5-0.3,1-0.5,1.6-0.7c0.6-0.2,1.2-0.2,1.9-0.2c0.8,0,1.5,0.1,2.1,0.2c0.6,0.2,1,0.4,1.4,0.7
		c0.3,0.3,0.6,0.6,0.7,1.1c0.1,0.4,0.2,0.9,0.2,1.4v7.9c0,0.4,0.1,0.7,0.3,1c0.2,0.3,0.5,0.5,0.8,0.7H94.8z M93.6,23.5
		c-0.4,0.1-0.7,0.3-1.1,0.4c-0.4,0.2-0.8,0.3-1.2,0.5s-0.7,0.4-1.1,0.6c-0.3,0.2-0.6,0.5-0.9,0.7c-0.3,0.3-0.5,0.5-0.6,0.8
		c-0.2,0.3-0.2,0.6-0.2,0.9c0,0.3,0.1,0.6,0.2,0.9s0.3,0.5,0.5,0.7s0.4,0.4,0.7,0.5c0.3,0.1,0.5,0.2,0.8,0.2c0.3,0,0.6,0,0.8-0.1
		c0.3-0.1,0.5-0.2,0.8-0.3s0.5-0.3,0.7-0.4s0.5-0.3,0.7-0.5V23.5z"/>
	<path d="M105.6,14.4h2.9l6.5,12.7h0.1l6.3-12.7h2.8V31h-2.8V17.4h-0.1L114.4,31h-0.6L107,17.5h-0.2V31h-1.2V14.4z"/>
	<path d="M134.5,31.2c-1,0-1.9-0.2-2.7-0.5c-0.8-0.3-1.5-0.8-2.1-1.4c-0.6-0.6-1.1-1.3-1.4-2.1c-0.3-0.8-0.5-1.6-0.5-2.5
		c0-0.9,0.2-1.8,0.5-2.7c0.3-0.8,0.8-1.6,1.4-2.2c0.6-0.6,1.3-1.1,2.1-1.5c0.8-0.4,1.7-0.5,2.7-0.5c1,0,1.9,0.2,2.7,0.5
		c0.8,0.3,1.5,0.8,2.1,1.3c0.6,0.6,1.1,1.2,1.4,2c0.3,0.8,0.5,1.6,0.5,2.5c0,1-0.2,1.9-0.5,2.7c-0.3,0.9-0.8,1.6-1.4,2.2
		c-0.6,0.6-1.3,1.1-2.1,1.5C136.4,31.1,135.5,31.2,134.5,31.2z M135,30.3c0.5,0,1-0.1,1.4-0.4c0.4-0.3,0.8-0.6,1.1-1
		s0.5-0.9,0.7-1.5s0.3-1.2,0.3-1.8c0-0.9-0.1-1.8-0.2-2.6s-0.4-1.5-0.8-2.1c-0.4-0.6-0.8-1.1-1.4-1.4c-0.6-0.3-1.3-0.5-2.1-0.5
		c-0.4,0-0.8,0.1-1.2,0.4c-0.4,0.2-0.8,0.6-1.1,1c-0.3,0.4-0.5,0.9-0.7,1.5c-0.2,0.6-0.3,1.2-0.3,1.8c0,0.9,0.1,1.8,0.3,2.6
		c0.2,0.8,0.5,1.5,0.9,2.1c0.4,0.6,0.8,1.1,1.4,1.4C133.7,30.1,134.3,30.3,135,30.3z"/>
	<path d="M146.7,17.9h0.4l0.3,2.6c0.2-0.4,0.5-0.7,0.8-1.1c0.3-0.3,0.6-0.6,1-0.8c0.4-0.2,0.7-0.4,1.2-0.5c0.4-0.1,0.8-0.2,1.2-0.2
		c0.4,0,0.7,0.1,1.1,0.2c0.4,0.1,0.7,0.3,1,0.5l-0.8,2.1c-0.2-0.2-0.3-0.3-0.5-0.4c-0.2-0.1-0.4-0.2-0.6-0.3
		c-0.2-0.1-0.4-0.1-0.6-0.1c-0.2,0-0.4,0-0.6,0c-0.3,0-0.6,0-0.9,0.1s-0.6,0.2-0.9,0.4c-0.3,0.2-0.5,0.4-0.8,0.7
		c-0.2,0.3-0.4,0.6-0.6,1V31h-2.5V18.6L146.7,17.9z"/>
	<path d="M163.9,31c-0.3-0.2-0.6-0.4-0.8-0.7s-0.3-0.7-0.3-1c-0.3,0.2-0.6,0.5-0.9,0.7c-0.3,0.2-0.6,0.5-0.9,0.7
		c-0.3,0.2-0.7,0.4-1.1,0.5c-0.4,0.1-0.9,0.2-1.4,0.2c-0.5,0-1-0.1-1.4-0.2s-0.7-0.4-1-0.7s-0.5-0.6-0.7-1c-0.2-0.4-0.2-0.8-0.2-1.3
		c0-0.6,0.1-1,0.3-1.5c0.2-0.4,0.5-0.8,0.9-1.2c0.4-0.3,0.8-0.7,1.3-0.9c0.5-0.3,1-0.5,1.6-0.7s1.2-0.4,1.8-0.6s1.2-0.3,1.8-0.5
		v-0.8c0-0.6,0-1.1-0.1-1.5c-0.1-0.4-0.2-0.7-0.4-1c-0.2-0.2-0.4-0.4-0.7-0.5c-0.3-0.1-0.6-0.2-1-0.2c-0.4,0-0.7,0.1-1,0.2
		c-0.3,0.1-0.6,0.3-0.8,0.6c-0.2,0.2-0.4,0.5-0.6,0.8c-0.1,0.3-0.2,0.7-0.3,1h-2.3c0.1-0.6,0.3-1,0.6-1.5c0.3-0.4,0.7-0.8,1.2-1.1
		c0.5-0.3,1-0.5,1.6-0.7s1.2-0.2,1.9-0.2c0.8,0,1.5,0.1,2.1,0.2s1,0.4,1.4,0.7c0.3,0.3,0.6,0.6,0.7,1.1c0.1,0.4,0.2,0.9,0.2,1.4v7.9
		c0,0.4,0.1,0.7,0.3,1c0.2,0.3,0.5,0.5,0.8,0.7H163.9z M162.7,23.5c-0.4,0.1-0.7,0.3-1.1,0.4c-0.4,0.2-0.8,0.3-1.2,0.5
		s-0.7,0.4-1.1,0.6c-0.3,0.2-0.6,0.5-0.9,0.7c-0.3,0.3-0.5,0.5-0.6,0.8c-0.2,0.3-0.2,0.6-0.2,0.9c0,0.3,0.1,0.6,0.2,0.9
		s0.3,0.5,0.5,0.7s0.4,0.4,0.7,0.5c0.3,0.1,0.5,0.2,0.8,0.2c0.3,0,0.6,0,0.8-0.1c0.3-0.1,0.5-0.2,0.8-0.3c0.2-0.1,0.5-0.3,0.7-0.4
		c0.2-0.2,0.5-0.3,0.7-0.5V23.5z"/>
</g>
</svg>
